<?xml version="1.0" encoding="UTF-8" standalone="no"?>
<!DOCTYPE svg PUBLIC "-//W3C//DTD SVG 1.1//EN"
 "http://www.w3.org/Graphics/SVG/1.1/DTD/svg11.dtd">
<!-- Generated by graphviz version 2.40.1 (20161225.0304)
 -->
<!-- Title: G Pages: 1 -->
<svg width="446pt" height="238pt"
 viewBox="0.00 0.00 445.55 238.00" xmlns="http://www.w3.org/2000/svg" xmlns:xlink="http://www.w3.org/1999/xlink">
<g id="graph0" class="graph" transform="scale(1 1) rotate(0) translate(4 234)">
<title>G</title>
<polygon fill="#ffffff" stroke="transparent" points="-4,4 -4,-234 441.5537,-234 441.5537,4 -4,4"/>
<!-- P -->
<g id="node1" class="node">
<title>P</title>
<text text-anchor="middle" x="167.959" y="-200.8" font-family="Helvetica,sans-Serif" font-size="14.00" fill="#000000">План</text>
</g>
<!-- SP -->
<g id="node3" class="node">
<title>SP</title>
<polygon fill="none" stroke="#000000" points="289.959,-144 145.959,-144 145.959,-72 289.959,-72 289.959,-144"/>
<text text-anchor="middle" x="217.959" y="-103.8" font-family="Helvetica,sans-Serif" font-size="14.00" fill="#000000">Создание ПО</text>
</g>
<!-- P&#45;&gt;SP -->
<g id="edge3" class="edge">
<title>P&#45;&gt;SP</title>
<path fill="none" stroke="#000000" d="M170.459,-186.755C170.459,-186.755 170.459,-154.2464 170.459,-154.2464"/>
<polygon fill="#000000" stroke="#000000" points="173.9591,-154.2463 170.459,-144.2464 166.9591,-154.2464 173.9591,-154.2463"/>
</g>
<!-- ZPP -->
<g id="node2" class="node">
<title>ZPP</title>
<text text-anchor="middle" x="266.959" y="-214.8" font-family="Helvetica,sans-Serif" font-size="14.00" fill="#000000">Заказ</text>
<text text-anchor="middle" x="266.959" y="-200.8" font-family="Helvetica,sans-Serif" font-size="14.00" fill="#000000">программного</text>
<text text-anchor="middle" x="266.959" y="-186.8" font-family="Helvetica,sans-Serif" font-size="14.00" fill="#000000">продукта</text>
</g>
<!-- ZPP&#45;&gt;SP -->
<g id="edge4" class="edge">
<title>ZPP&#45;&gt;SP</title>
<path fill="none" stroke="#000000" d="M251.4048,-179.7676C251.4048,-179.7676 251.4048,-154.0621 251.4048,-154.0621"/>
<polygon fill="#000000" stroke="#000000" points="254.9049,-154.0621 251.4048,-144.0621 247.9049,-154.0622 254.9049,-154.0621"/>
</g>
<!-- GP -->
<g id="node5" class="node">
<title>GP</title>
<text text-anchor="middle" x="372.959" y="-103.8" font-family="Helvetica,sans-Serif" font-size="14.00" fill="#000000">Готовый продукт</text>
</g>
<!-- SP&#45;&gt;GP -->
<g id="edge2" class="edge">
<title>SP&#45;&gt;GP</title>
<path fill="none" stroke="#000000" d="M290.0138,-108C290.0138,-108 298.025,-108 298.025,-108"/>
<polygon fill="#000000" stroke="#000000" points="298.025,-111.5001 308.025,-108 298.0249,-104.5001 298.025,-111.5001"/>
</g>
<!-- R -->
<g id="node6" class="node">
<title>R</title>
<text text-anchor="middle" x="161.959" y="-13.8" font-family="Helvetica,sans-Serif" font-size="14.00" fill="#000000">Разрабочик</text>
</g>
<!-- SP&#45;&gt;R -->
<g id="edge5" class="edge">
<title>SP&#45;&gt;R</title>
<path fill="none" stroke="#000000" d="M177.6191,-61.9121C177.6191,-61.9121 177.6191,-36.0539 177.6191,-36.0539"/>
<polygon fill="#000000" stroke="#000000" points="174.1192,-61.9121 177.6191,-71.9121 181.1192,-61.9122 174.1192,-61.9121"/>
</g>
<!-- SR -->
<g id="node7" class="node">
<title>SR</title>
<text text-anchor="middle" x="273.959" y="-20.8" font-family="Helvetica,sans-Serif" font-size="14.00" fill="#000000">Среда</text>
<text text-anchor="middle" x="273.959" y="-6.8" font-family="Helvetica,sans-Serif" font-size="14.00" fill="#000000">разработки</text>
</g>
<!-- SP&#45;&gt;SR -->
<g id="edge6" class="edge">
<title>SP&#45;&gt;SR</title>
<path fill="none" stroke="#000000" d="M258.8201,-61.9121C258.8201,-61.9121 258.8201,-36.0539 258.8201,-36.0539"/>
<polygon fill="#000000" stroke="#000000" points="255.3202,-61.9121 258.8201,-71.9121 262.3202,-61.9122 255.3202,-61.9121"/>
</g>
<!-- VD -->
<g id="node4" class="node">
<title>VD</title>
<text text-anchor="middle" x="63.959" y="-103.8" font-family="Helvetica,sans-Serif" font-size="14.00" fill="#000000">Входные данные</text>
</g>
<!-- VD&#45;&gt;SP -->
<g id="edge1" class="edge">
<title>VD&#45;&gt;SP</title>
<path fill="none" stroke="#000000" d="M127.931,-108C127.931,-108 135.954,-108 135.954,-108"/>
<polygon fill="#000000" stroke="#000000" points="135.954,-111.5001 145.954,-108 135.954,-104.5001 135.954,-111.5001"/>
</g>
</g>
</svg>
