<?xml version="1.0" encoding="UTF-8"?><svg xmlns="http://www.w3.org/2000/svg" xmlns:xlink="http://www.w3.org/1999/xlink" fill-opacity="1" color-rendering="auto" color-interpolation="auto" text-rendering="auto" stroke="black" stroke-linecap="square" width="540" stroke-miterlimit="10" shape-rendering="auto" stroke-opacity="1" fill="black" stroke-dasharray="none" font-weight="normal" stroke-width="1" height="479" font-family="'Dialog'" font-style="normal" stroke-linejoin="miter" font-size="12px" stroke-dashoffset="0" image-rendering="auto">
  <!--Generated by ySVG 2.5-->
  <defs id="genericDefs"/>
  <g>
    <defs id="defs1">
      <clipPath clipPathUnits="userSpaceOnUse" id="clipPath1">
        <path d="M0 0 L540 0 L540 479 L0 479 L0 0 Z"/>
      </clipPath>
      <clipPath clipPathUnits="userSpaceOnUse" id="clipPath2">
        <path d="M0 -20 L540 -20 L540 459 L0 459 L0 -20 Z"/>
      </clipPath>
      <clipPath clipPathUnits="userSpaceOnUse" id="clipPath3">
        <path d="M5 -15 L545 -15 L545 464 L5 464 L5 -15 Z"/>
      </clipPath>
    </defs>
    <g fill="silver" text-rendering="geometricPrecision" shape-rendering="geometricPrecision" transform="matrix(1,0,0,1,-5,15) translate(5,5)" stroke="silver">
      <rect x="20.0004" width="172.373" height="30" y="61" clip-path="url(#clipPath2)" stroke="none"/>
    </g>
    <g fill="white" text-rendering="geometricPrecision" shape-rendering="geometricPrecision" transform="matrix(1,0,0,1,-5,15)" stroke="white">
      <rect x="20.0004" width="172.373" height="30" y="61" clip-path="url(#clipPath3)" stroke="none"/>
    </g>
    <g text-rendering="geometricPrecision" stroke-miterlimit="1.45" shape-rendering="geometricPrecision" transform="matrix(1,0,0,1,-5,15)" stroke-linecap="butt">
      <rect fill="none" x="20.0004" width="172.373" height="30" y="61" clip-path="url(#clipPath3)"/>
      <text x="27.0004" xml:space="preserve" y="80.5352" clip-path="url(#clipPath3)" font-family="sans-serif" stroke="none">Руководство пользователя</text>
    </g>
    <g fill="silver" text-rendering="geometricPrecision" shape-rendering="geometricPrecision" transform="matrix(1,0,0,1,-5,15) translate(5,5)" stroke="silver">
      <rect x="159.1404" width="174.1953" height="30" y="188" clip-path="url(#clipPath2)" stroke="none"/>
    </g>
    <g fill="white" text-rendering="geometricPrecision" shape-rendering="geometricPrecision" transform="matrix(1,0,0,1,-5,15)" stroke="white">
      <rect x="159.1404" width="174.1953" height="30" y="188" clip-path="url(#clipPath3)" stroke="none"/>
    </g>
    <g text-rendering="geometricPrecision" stroke-miterlimit="1.45" shape-rendering="geometricPrecision" transform="matrix(1,0,0,1,-5,15)" stroke-linecap="butt">
      <rect fill="none" x="159.1404" width="174.1953" height="30" y="188" clip-path="url(#clipPath3)"/>
      <text x="166.1404" xml:space="preserve" y="207.5352" clip-path="url(#clipPath3)" font-family="sans-serif" stroke="none">Руководство разработчика</text>
    </g>
    <g fill="silver" text-rendering="geometricPrecision" shape-rendering="geometricPrecision" transform="matrix(1,0,0,1,-5,15) translate(5,5)" stroke="silver">
      <rect x="236.2566" width="194.5273" height="30" y="308" clip-path="url(#clipPath2)" stroke="none"/>
    </g>
    <g fill="white" text-rendering="geometricPrecision" shape-rendering="geometricPrecision" transform="matrix(1,0,0,1,-5,15)" stroke="white">
      <rect x="236.2566" width="194.5273" height="30" y="308" clip-path="url(#clipPath3)" stroke="none"/>
    </g>
    <g text-rendering="geometricPrecision" stroke-miterlimit="1.45" shape-rendering="geometricPrecision" transform="matrix(1,0,0,1,-5,15)" stroke-linecap="butt">
      <rect fill="none" x="236.2566" width="194.5273" height="30" y="308" clip-path="url(#clipPath3)"/>
      <text x="243.2566" xml:space="preserve" y="327.5352" clip-path="url(#clipPath3)" font-family="sans-serif" stroke="none">Описание возможных ошибок</text>
      <text x="32.4736" xml:space="preserve" y="207.5352" clip-path="url(#clipPath3)" font-family="sans-serif" stroke="none">ПО</text>
      <text x="419.3362" xml:space="preserve" y="207.5352" clip-path="url(#clipPath3)" font-family="sans-serif" stroke="none">Готовый продукт</text>
      <text x="91.1781" xml:space="preserve" y="19.5352" clip-path="url(#clipPath3)" font-family="sans-serif" stroke="none">План</text>
      <text x="47.5356" xml:space="preserve" y="438.5352" clip-path="url(#clipPath3)" font-family="sans-serif" stroke="none">Разработчик</text>
      <text x="327.2174" xml:space="preserve" y="438.5352" clip-path="url(#clipPath3)" font-family="sans-serif" stroke="none">Среда разработки</text>
      <path fill="none" d="M170.8268 91 L170.8268 101.5 L171.4518 105.875 L173.3268 109 L176.4518 110.875 L180.8268 111.5 L192.6893 111.5 L197.0643 112.125 L200.1893 114 L202.0643 117.125 L202.6893 121.5 L202.6893 179.9626" clip-path="url(#clipPath3)"/>
      <path d="M202.6893 187.9626 L207.6893 175.9626 L202.6893 178.9626 L197.6893 175.9626 Z" clip-path="url(#clipPath3)" stroke="none"/>
      <path fill="none" d="M304.3032 218 L304.3032 282.5 L304.9158 290 L306.7537 292.5 L306.7537 292.5 L308.5917 293.4337 L309.2043 296.2349 L309.2043 299.9697" clip-path="url(#clipPath3)"/>
      <path d="M309.2043 307.9697 L314.2043 295.9697 L309.2043 298.9697 L304.2043 295.9697 Z" clip-path="url(#clipPath3)" stroke="none"/>
      <path fill="none" d="M41.5468 187.9526 L41.547 99" clip-path="url(#clipPath3)"/>
      <path d="M41.547 91 L36.547 103 L41.547 100 L46.547 103 Z" clip-path="url(#clipPath3)" stroke="none"/>
      <path fill="none" d="M57.6201 203 L151.0909 203" clip-path="url(#clipPath3)"/>
      <path d="M159.0909 203 L147.0909 198 L150.0909 203 L147.0909 208 Z" clip-path="url(#clipPath3)" stroke="none"/>
      <path fill="none" d="M41.5468 218 L41.5468 244.5 L42.1718 248.875 L44.0468 252 L47.1718 253.875 L51.5468 254.5 L250.5726 254.5 L254.9476 255.125 L258.0726 257 L259.9476 260.125 L260.5726 264.5 L260.5725 299.9739" clip-path="url(#clipPath3)"/>
      <path d="M260.5725 307.9739 L265.5725 295.9739 L260.5725 298.9739 L255.5725 295.9738 Z" clip-path="url(#clipPath3)" stroke="none"/>
      <path fill="none" d="M406.468 307.9697 L406.468 300.2349 L407.093 296.8509 L408.968 294.4337 L412.093 292.9834 L416.468 292.5 L460.6702 292.5 L465.0452 291.875 L468.1702 290 L470.0452 286.875 L470.6702 282.5 L470.6702 226" clip-path="url(#clipPath3)"/>
      <path d="M470.6702 218 L465.6702 230 L470.6702 227 L475.6702 230 Z" clip-path="url(#clipPath3)" stroke="none"/>
      <path fill="none" d="M333.3358 203 L404.2977 203" clip-path="url(#clipPath3)"/>
      <path d="M412.2977 203 L400.2977 198 L403.2977 203 L400.2977 208 Z" clip-path="url(#clipPath3)" stroke="none"/>
      <path fill="none" d="M170.8268 91 L170.8268 101.5 L171.4518 105.875 L173.3268 109 L176.4518 110.875 L180.8268 111.5 L192.6893 111.5 L197.0643 112 L200.1893 113.5 L202.0643 116 L202.6893 119.5 L202.6893 119.5 L203.3143 123 L205.1893 125.5 L208.3143 127 L212.6893 127.5 L212.6893 127.5 L217.0643 128.125 L220.1893 130 L222.0643 133.125 L222.6893 137.5 L222.6893 162.5 L223.3143 166.875 L225.1893 170 L228.3143 171.875 L232.6893 172.5 L460.6702 172.5 L468.1702 173.4337 L470.0452 174.6009 L470.6702 176.2349 L470.6702 179.9697" clip-path="url(#clipPath3)"/>
      <path d="M470.6702 187.9697 L475.6702 175.9697 L470.6702 178.9697 L465.6702 175.9697 Z" clip-path="url(#clipPath3)" stroke="none"/>
      <path fill="none" d="M106.1869 30 L106.1869 52.9697" clip-path="url(#clipPath3)"/>
      <path d="M106.1869 60.9697 L111.1869 48.9697 L106.1869 51.9697 L101.1869 48.9697 Z" clip-path="url(#clipPath3)" stroke="none"/>
      <path fill="none" d="M106.1869 30 L106.1869 37.75 L106.8119 41.1406 L108.6869 43.5625 L111.8119 45.0156 L116.1869 45.5 L279.7869 45.5 L284.1619 46.125 L287.2869 48 L289.1619 51.125 L289.7869 55.5 L289.7869 179.9652" clip-path="url(#clipPath3)"/>
      <path d="M289.7869 187.9652 L294.7869 175.9652 L289.7869 178.9652 L284.7869 175.9652 Z" clip-path="url(#clipPath3)" stroke="none"/>
      <path fill="none" d="M106.1869 30 L106.1869 37.75 L106.8119 41.1406 L108.6869 43.5625 L111.8119 45.0156 L116.1869 45.5 L347.8361 45.5 L352.2111 46.125 L355.3361 48 L357.2111 51.125 L357.8361 55.5 L357.8362 299.968" clip-path="url(#clipPath3)"/>
      <path d="M357.8362 307.968 L362.8362 295.968 L357.8362 298.968 L352.8362 295.968 Z" clip-path="url(#clipPath3)" stroke="none"/>
      <path fill="none" d="M84.6401 418.96 L84.6403 99" clip-path="url(#clipPath3)"/>
      <path d="M84.6403 91 L79.6403 103 L84.6403 100 L89.6403 103 Z" clip-path="url(#clipPath3)" stroke="none"/>
      <path fill="none" d="M84.6401 418.9692 L84.6401 397.5 L85.2651 393.125 L87.1401 390 L90.2651 388.125 L94.6401 387.5 L178.173 387.5 L182.548 386.875 L185.673 385 L187.548 381.875 L188.173 377.5 L188.173 226" clip-path="url(#clipPath3)"/>
      <path d="M188.173 218 L183.173 230 L188.173 227 L193.173 230 Z" clip-path="url(#clipPath3)" stroke="none"/>
      <path fill="none" d="M84.6401 418.9692 L84.6401 397.5 L85.2651 393.125 L87.1401 390 L90.2651 388.125 L94.6401 387.5 L274.8885 387.5 L279.2635 386.875 L282.3885 385 L284.2635 381.875 L284.8885 377.5 L284.8884 346" clip-path="url(#clipPath3)"/>
      <path d="M284.8884 338 L279.8885 350 L284.8884 347 L289.8884 350 Z" clip-path="url(#clipPath3)" stroke="none"/>
      <path fill="none" d="M382.152 418.9697 L382.152 411.2349 L381.527 407.8509 L379.652 405.4337 L376.527 403.9834 L372.152 403.5 L114.6401 403.5 L110.2651 402.875 L107.1401 401 L105.2651 397.875 L104.6401 393.5 L104.6401 121.5 L105.2651 117.125 L107.1401 114 L110.2651 112.125 L114.6401 111.5 L117.7335 111.5 L122.1085 111.1094 L125.2335 109.9375 L127.1085 107.9844 L127.7335 105.25 L127.7335 99" clip-path="url(#clipPath3)"/>
      <path d="M127.7335 91 L122.7335 103 L127.7335 100 L132.7335 103 Z" clip-path="url(#clipPath3)" stroke="none"/>
      <path fill="none" d="M382.152 418.9697 L382.152 411.2349 L381.527 407.8509 L379.652 405.4337 L376.527 403.9834 L372.152 403.5 L226.7563 403.5 L222.3813 402.875 L219.2563 401 L217.3813 397.875 L216.7563 393.5 L216.7563 248.5 L217.3813 244.125 L219.2563 241 L222.3813 239.125 L226.7563 238.5 L236.2381 238.5 L240.6131 238.1094 L243.7381 236.9375 L245.6131 234.9844 L246.2381 232.25 L246.2381 226" clip-path="url(#clipPath3)"/>
      <path d="M246.2381 218 L241.2381 230 L246.2381 227 L251.2381 230 Z" clip-path="url(#clipPath3)" stroke="none"/>
      <path fill="none" d="M382.152 418.9604 L382.1521 346" clip-path="url(#clipPath3)"/>
      <path d="M382.1521 338 L377.1521 350 L382.1521 347 L387.1521 350 Z" clip-path="url(#clipPath3)" stroke="none"/>
    </g>
  </g>
</svg>
