<?xml version="1.0" encoding="UTF-8"?><svg xmlns="http://www.w3.org/2000/svg" xmlns:xlink="http://www.w3.org/1999/xlink" fill-opacity="1" color-rendering="auto" color-interpolation="auto" text-rendering="auto" stroke="black" stroke-linecap="square" width="467" stroke-miterlimit="10" shape-rendering="auto" stroke-opacity="1" fill="black" stroke-dasharray="none" font-weight="normal" stroke-width="1" height="342" font-family="'Dialog'" font-style="normal" stroke-linejoin="miter" font-size="12px" stroke-dashoffset="0" image-rendering="auto">
  <!--Generated by ySVG 2.5-->
  <defs id="genericDefs"/>
  <g>
    <defs id="defs1">
      <clipPath clipPathUnits="userSpaceOnUse" id="clipPath1">
        <path d="M0 0 L467 0 L467 342 L0 342 L0 0 Z"/>
      </clipPath>
      <clipPath clipPathUnits="userSpaceOnUse" id="clipPath2">
        <path d="M0 -20 L467 -20 L467 322 L0 322 L0 -20 Z"/>
      </clipPath>
      <clipPath clipPathUnits="userSpaceOnUse" id="clipPath3">
        <path d="M5 -15 L472 -15 L472 327 L5 327 L5 -15 Z"/>
      </clipPath>
    </defs>
    <g fill="silver" text-rendering="geometricPrecision" shape-rendering="geometricPrecision" transform="matrix(1,0,0,1,-5,15) translate(5,5)" stroke="silver">
      <rect x="87.0749" width="199.2383" height="30" y="61" clip-path="url(#clipPath2)" stroke="none"/>
    </g>
    <g fill="white" text-rendering="geometricPrecision" shape-rendering="geometricPrecision" transform="matrix(1,0,0,1,-5,15)" stroke="white">
      <rect x="87.0749" width="199.2383" height="30" y="61" clip-path="url(#clipPath3)" stroke="none"/>
    </g>
    <g text-rendering="geometricPrecision" stroke-miterlimit="1.45" shape-rendering="geometricPrecision" transform="matrix(1,0,0,1,-5,15)" stroke-linecap="butt">
      <rect fill="none" x="87.0749" width="199.2383" height="30" y="61" clip-path="url(#clipPath3)"/>
      <text x="94.0749" xml:space="preserve" y="80.5352" clip-path="url(#clipPath3)" font-family="sans-serif" stroke="none">Разработка функциональности</text>
    </g>
    <g fill="silver" text-rendering="geometricPrecision" shape-rendering="geometricPrecision" transform="matrix(1,0,0,1,-5,15) translate(5,5)" stroke="silver">
      <rect x="233.1279" width="156.2949" height="30" y="170.1328" clip-path="url(#clipPath2)" stroke="none"/>
    </g>
    <g fill="white" text-rendering="geometricPrecision" shape-rendering="geometricPrecision" transform="matrix(1,0,0,1,-5,15)" stroke="white">
      <rect x="233.1279" width="156.2949" height="30" y="170.1328" clip-path="url(#clipPath3)" stroke="none"/>
    </g>
    <g text-rendering="geometricPrecision" stroke-miterlimit="1.45" shape-rendering="geometricPrecision" transform="matrix(1,0,0,1,-5,15)" stroke-linecap="butt">
      <rect fill="none" x="233.1279" width="156.2949" height="30" y="170.1328" clip-path="url(#clipPath3)"/>
      <text x="240.1279" xml:space="preserve" y="189.668" clip-path="url(#clipPath3)" font-family="sans-serif" stroke="none">Разработка интерфейса</text>
      <text x="27.0002" xml:space="preserve" y="80.5352" clip-path="url(#clipPath3)" font-family="sans-serif" stroke="none">ТЗ</text>
      <text x="431.4232" xml:space="preserve" y="189.668" clip-path="url(#clipPath3)" font-family="sans-serif" stroke="none">ПО</text>
      <text x="171.6853" xml:space="preserve" y="19.5352" clip-path="url(#clipPath3)" font-family="sans-serif" stroke="none">План</text>
      <text x="83.1769" xml:space="preserve" y="300.668" clip-path="url(#clipPath3)" font-family="sans-serif" stroke="none">Разработчик</text>
      <text x="295.4146" xml:space="preserve" y="300.668" clip-path="url(#clipPath3)" font-family="sans-serif" stroke="none">Среда разработки</text>
      <path fill="none" d="M253.1068 91 L253.1068 101.5 L253.7035 105.875 L255.4937 109 L258.4772 110.875 L262.6542 111.5 L262.6542 111.5 L266.8312 112.125 L269.8148 114 L271.6049 117.125 L272.2016 121.5 L272.2017 162.1042" clip-path="url(#clipPath3)"/>
      <path d="M272.2017 170.1042 L277.2017 158.1042 L272.2017 161.1042 L267.2017 158.1042 Z" clip-path="url(#clipPath3)" stroke="none"/>
      <text x="156.2817" xml:space="preserve" y="155.4766" clip-path="url(#clipPath3)" font-family="sans-serif" stroke="none">Функциональность</text>
      <path fill="none" d="M48.0744 76 L79.0368 76" clip-path="url(#clipPath3)"/>
      <path d="M87.0368 76 L75.0368 71 L78.0368 76 L75.0368 81 Z" clip-path="url(#clipPath3)" stroke="none"/>
      <path fill="none" d="M389.4229 185.1328 L416.389 185.1328" clip-path="url(#clipPath3)"/>
      <path d="M424.389 185.1328 L412.389 180.1328 L415.389 185.1328 L412.389 190.1328 Z" clip-path="url(#clipPath3)" stroke="none"/>
      <path fill="none" d="M186.694 30 L186.694 52.9697" clip-path="url(#clipPath3)"/>
      <path d="M186.694 60.9697 L191.694 48.9697 L186.694 51.9697 L181.694 48.9697 Z" clip-path="url(#clipPath3)" stroke="none"/>
      <path fill="none" d="M186.694 30 L186.694 37.75 L187.319 41.1406 L189.194 43.5625 L192.319 45.0156 L196.694 45.5 L340.3492 45.5 L344.7242 46.125 L347.8492 48 L349.7242 51.125 L350.3492 55.5 L350.3491 162.1024" clip-path="url(#clipPath3)"/>
      <path d="M350.3491 170.1024 L355.3491 158.1024 L350.3491 161.1024 L345.3491 158.1024 Z" clip-path="url(#clipPath3)" stroke="none"/>
      <path fill="none" d="M120.2813 281.0864 L120.2813 99" clip-path="url(#clipPath3)"/>
      <path d="M120.2813 91 L115.2813 103 L120.2813 100 L125.2813 103 Z" clip-path="url(#clipPath3)" stroke="none"/>
      <path fill="none" d="M120.2813 281.1021 L120.2813 259.6328 L120.9063 255.2578 L122.7813 252.1328 L125.9063 250.2578 L130.2813 249.6328 L262.2016 249.6328 L266.5766 249.0078 L269.7016 247.1328 L271.5766 244.0078 L272.2016 239.6328 L272.2017 208.1328" clip-path="url(#clipPath3)"/>
      <path d="M272.2017 200.1328 L267.2017 212.1328 L272.2017 209.1328 L277.2017 212.1328 Z" clip-path="url(#clipPath3)" stroke="none"/>
      <path fill="none" d="M350.3492 281.1025 L350.3492 273.3677 L349.7242 269.9837 L347.8492 267.5665 L344.7242 266.1162 L340.3492 265.6328 L150.2814 265.6328 L145.9064 265.0078 L142.7814 263.1328 L140.9064 260.0078 L140.2814 255.6328 L140.2814 121.5 L140.9064 117.125 L142.7814 114 L145.9064 112.125 L150.2814 111.5 L176.694 111.5 L181.069 111.1094 L184.194 109.9375 L186.069 107.9844 L186.694 105.25 L186.694 99" clip-path="url(#clipPath3)"/>
      <path d="M186.694 91 L181.694 103 L186.694 100 L191.694 103 Z" clip-path="url(#clipPath3)" stroke="none"/>
      <path fill="none" d="M350.3492 281.0933 L350.3491 208.1328" clip-path="url(#clipPath3)"/>
      <path d="M350.3491 200.1328 L345.3491 212.1328 L350.3491 209.1328 L355.3491 212.1328 Z" clip-path="url(#clipPath3)" stroke="none"/>
    </g>
  </g>
</svg>
