<?xml version="1.0" encoding="UTF-8"?><svg xmlns="http://www.w3.org/2000/svg" xmlns:xlink="http://www.w3.org/1999/xlink" fill-opacity="1" color-rendering="auto" color-interpolation="auto" text-rendering="auto" stroke="black" stroke-linecap="square" width="797" stroke-miterlimit="10" shape-rendering="auto" stroke-opacity="1" fill="black" stroke-dasharray="none" font-weight="normal" stroke-width="1" height="533" font-family="'Dialog'" font-style="normal" stroke-linejoin="miter" font-size="12px" stroke-dashoffset="0" image-rendering="auto">
  <!--Generated by ySVG 2.5-->
  <defs id="genericDefs"/>
  <g>
    <defs id="defs1">
      <clipPath clipPathUnits="userSpaceOnUse" id="clipPath1">
        <path d="M0 0 L797 0 L797 533 L0 533 L0 0 Z"/>
      </clipPath>
      <clipPath clipPathUnits="userSpaceOnUse" id="clipPath2">
        <path d="M0 -29 L797 -29 L797 504 L0 504 L0 -29 Z"/>
      </clipPath>
      <clipPath clipPathUnits="userSpaceOnUse" id="clipPath3">
        <path d="M5 -24 L802 -24 L802 509 L5 509 L5 -24 Z"/>
      </clipPath>
    </defs>
    <g fill="silver" text-rendering="geometricPrecision" shape-rendering="geometricPrecision" transform="matrix(1,0,0,1,-5,24) translate(5,5)" stroke="silver">
      <rect x="174.4614" width="198.3359" height="30" y="122.1992" clip-path="url(#clipPath2)" stroke="none"/>
    </g>
    <g fill="white" text-rendering="geometricPrecision" shape-rendering="geometricPrecision" transform="matrix(1,0,0,1,-5,24)" stroke="white">
      <rect x="174.4614" width="198.3359" height="30" y="122.1992" clip-path="url(#clipPath3)" stroke="none"/>
    </g>
    <g text-rendering="geometricPrecision" stroke-miterlimit="1.45" shape-rendering="geometricPrecision" transform="matrix(1,0,0,1,-5,24)" stroke-linecap="butt">
      <rect fill="none" x="174.4614" width="198.3359" height="30" y="122.1992" clip-path="url(#clipPath3)"/>
      <text x="181.4614" xml:space="preserve" y="141.7344" clip-path="url(#clipPath3)" font-family="sans-serif" stroke="none">Общая формулировка задания</text>
    </g>
    <g fill="silver" text-rendering="geometricPrecision" shape-rendering="geometricPrecision" transform="matrix(1,0,0,1,-5,24) translate(5,5)" stroke="silver">
      <rect x="278.7764" width="266.6211" height="30" y="245.4648" clip-path="url(#clipPath2)" stroke="none"/>
    </g>
    <g fill="white" text-rendering="geometricPrecision" shape-rendering="geometricPrecision" transform="matrix(1,0,0,1,-5,24)" stroke="white">
      <rect x="278.7764" width="266.6211" height="30" y="245.4648" clip-path="url(#clipPath3)" stroke="none"/>
    </g>
    <g text-rendering="geometricPrecision" stroke-miterlimit="1.45" shape-rendering="geometricPrecision" transform="matrix(1,0,0,1,-5,24)" stroke-linecap="butt">
      <rect fill="none" x="278.7764" width="266.6211" height="30" y="245.4648" clip-path="url(#clipPath3)"/>
      <text x="285.7764" xml:space="preserve" y="265" clip-path="url(#clipPath3)" font-family="sans-serif" stroke="none">Требования ко графическому интерфейсу</text>
    </g>
    <g fill="silver" text-rendering="geometricPrecision" shape-rendering="geometricPrecision" transform="matrix(1,0,0,1,-5,24) translate(5,5)" stroke="silver">
      <rect x="429.7841" width="293.75" height="30" y="368.7305" clip-path="url(#clipPath2)" stroke="none"/>
    </g>
    <g fill="white" text-rendering="geometricPrecision" shape-rendering="geometricPrecision" transform="matrix(1,0,0,1,-5,24)" stroke="white">
      <rect x="429.7841" width="293.75" height="30" y="368.7305" clip-path="url(#clipPath3)" stroke="none"/>
    </g>
    <g text-rendering="geometricPrecision" stroke-miterlimit="1.45" shape-rendering="geometricPrecision" transform="matrix(1,0,0,1,-5,24)" stroke-linecap="butt">
      <rect fill="none" x="429.7841" width="293.75" height="30" y="368.7305" clip-path="url(#clipPath3)"/>
      <text x="436.7841" xml:space="preserve" y="388.2656" clip-path="url(#clipPath3)" font-family="sans-serif" stroke="none">Требования к функциональным возможностям</text>
      <text x="27.0001" xml:space="preserve" y="141.7344" clip-path="url(#clipPath3)" font-family="sans-serif" stroke="none">Входные данные</text>
      <text x="765.5343" xml:space="preserve" y="388.2656" clip-path="url(#clipPath3)" font-family="sans-serif" stroke="none">ТЗ</text>
      <text x="468.8357" xml:space="preserve" y="5.4023" clip-path="url(#clipPath3)" font-family="sans-serif" stroke="none">Заказ</text>
      <text x="440.8777" xml:space="preserve" y="19.5352" clip-path="url(#clipPath3)" font-family="sans-serif" stroke="none">программного</text>
      <text x="456.8504" xml:space="preserve" y="33.668" clip-path="url(#clipPath3)" font-family="sans-serif" stroke="none">продукта</text>
      <text x="209.0365" xml:space="preserve" y="19.5352" clip-path="url(#clipPath3)" font-family="sans-serif" stroke="none">План</text>
      <text x="146.9582" xml:space="preserve" y="483.2656" clip-path="url(#clipPath3)" font-family="sans-serif" stroke="none">Разработчик</text>
      <path fill="none" d="M323.2133 152.1992 L323.2132 237.4193" clip-path="url(#clipPath3)"/>
      <path d="M323.2132 245.4193 L328.2132 233.4193 L323.2132 236.4193 L318.2133 233.4193 Z" clip-path="url(#clipPath3)" stroke="none"/>
      <text x="200.0628" xml:space="preserve" y="216.6758" clip-path="url(#clipPath3)" font-family="sans-serif" stroke="none">Сформулированное</text>
      <text x="235.2367" xml:space="preserve" y="230.8086" clip-path="url(#clipPath3)" font-family="sans-serif" stroke="none">задание</text>
      <path fill="none" d="M478.7422 275.4648 L478.7424 360.6849" clip-path="url(#clipPath3)"/>
      <path d="M478.7425 368.6849 L483.7424 356.6849 L478.7424 359.6849 L473.7424 356.685 Z" clip-path="url(#clipPath3)" stroke="none"/>
      <text x="341.4943" xml:space="preserve" y="339.9414" clip-path="url(#clipPath3)" font-family="sans-serif" stroke="none">ТЗ к функциональным</text>
      <text x="365.0197" xml:space="preserve" y="354.0742" clip-path="url(#clipPath3)" font-family="sans-serif" stroke="none">возможностям</text>
      <path fill="none" d="M135.461 137.1992 L166.4233 137.1992" clip-path="url(#clipPath3)"/>
      <path d="M174.4233 137.1992 L162.4233 132.1992 L165.4233 137.1992 L162.4233 142.1992 Z" clip-path="url(#clipPath3)" stroke="none"/>
      <path fill="none" d="M723.5341 383.7305 L750.5001 383.7305" clip-path="url(#clipPath3)"/>
      <path d="M758.5001 383.7305 L746.5001 378.7305 L749.5001 383.7305 L746.5001 388.7305 Z" clip-path="url(#clipPath3)" stroke="none"/>
      <path fill="none" d="M484.9607 30 L484.9607 88.6992 L484.3357 93.0742 L482.4607 96.1992 L479.3357 98.0742 L474.9607 98.6992 L333.2133 98.6992 L328.8383 99.1822 L325.7133 100.631 L323.8383 103.0457 L323.2133 106.4263 L323.2133 114.1533" clip-path="url(#clipPath3)"/>
      <path d="M323.2133 122.1533 L328.2133 110.1533 L323.2133 113.1533 L318.2133 110.1533 Z" clip-path="url(#clipPath3)" stroke="none"/>
      <path fill="none" d="M484.9607 30 L484.9607 43.6992 L485.4607 48.0742 L486.9607 51.1992 L489.4607 53.0742 L492.9607 53.6992 L492.9607 53.6992 L496.4607 54.3242 L498.9607 56.1992 L500.4607 59.3242 L500.9607 63.6992 L500.9606 237.418" clip-path="url(#clipPath3)"/>
      <path d="M500.9606 245.418 L505.9606 233.418 L500.9606 236.418 L495.9606 233.418 Z" clip-path="url(#clipPath3)" stroke="none"/>
      <path fill="none" d="M484.9607 30 L484.9607 43.6992 L485.5857 48.0742 L487.4607 51.1992 L490.5857 53.0742 L494.9607 53.6992 L664.5758 53.6992 L668.9508 54.3242 L672.0758 56.1992 L673.9508 59.3242 L674.5758 63.6992 L674.5758 360.692" clip-path="url(#clipPath3)"/>
      <path d="M674.5758 368.692 L679.5758 356.692 L674.5758 359.692 L669.5758 356.692 Z" clip-path="url(#clipPath3)" stroke="none"/>
      <path fill="none" d="M224.0452 30 L224.0454 114.1542" clip-path="url(#clipPath3)"/>
      <path d="M224.0454 122.1542 L229.0453 110.1542 L224.0454 113.1542 L219.0454 110.1542 Z" clip-path="url(#clipPath3)" stroke="none"/>
      <path fill="none" d="M224.0452 30 L224.0452 50.6992 L224.6702 55.0742 L226.5452 58.1992 L229.6702 60.0742 L234.0452 60.6992 L402.0869 60.6992 L406.4619 61.3242 L409.5869 63.1992 L411.4619 66.3242 L412.0869 70.6992 L412.0869 237.4197" clip-path="url(#clipPath3)"/>
      <path d="M412.0869 245.4197 L417.0869 233.4197 L412.0869 236.4197 L407.0869 233.4197 Z" clip-path="url(#clipPath3)" stroke="none"/>
      <path fill="none" d="M224.0452 30 L224.0452 50.6992 L224.6702 55.0742 L226.5452 58.1992 L229.6702 60.0742 L234.0452 60.6992 L454.9607 60.6992 L459.3357 61.3242 L462.4607 63.1992 L464.3357 66.3242 L464.9607 70.6992 L464.9607 104.6992 L465.5857 109.0742 L467.4607 112.1992 L470.5857 114.0742 L474.9607 114.6992 L566.6591 114.6992 L571.0341 115.3242 L574.1591 117.1992 L576.0341 120.3242 L576.6591 124.6992 L576.6591 360.6995" clip-path="url(#clipPath3)"/>
      <path d="M576.6591 368.6995 L581.6591 356.6995 L576.6591 359.6995 L571.6591 356.6995 Z" clip-path="url(#clipPath3)" stroke="none"/>
      <path fill="none" d="M184.0627 463.6949 L184.0627 182.6992 L184.6877 178.3242 L186.5627 175.1992 L189.6877 173.3242 L194.0627 172.6992 L214.0454 172.6992 L218.4204 172.3086 L221.5454 171.1367 L223.4204 169.1836 L224.0454 166.4492 L224.0454 160.1992" clip-path="url(#clipPath3)"/>
      <path d="M224.0454 152.1992 L219.0454 164.1992 L224.0454 161.1992 L229.0454 164.1992 Z" clip-path="url(#clipPath3)" stroke="none"/>
      <path fill="none" d="M184.0627 463.7002 L184.0627 455.9653 L184.6877 452.5813 L186.5627 450.1642 L189.6877 448.7139 L194.0627 448.2305 L315.494 448.2305 L319.869 447.6055 L322.994 445.7305 L324.869 442.6055 L325.494 438.2305 L325.494 305.9648 L326.1171 301.5898 L327.9862 298.4648 L331.1015 296.5898 L335.4628 295.9648 L335.4628 295.9648 L339.8242 295.5742 L342.9395 294.4023 L344.8086 292.4492 L345.4316 289.7148 L345.4316 283.4648" clip-path="url(#clipPath3)"/>
      <path d="M345.4316 275.4648 L340.4316 287.4648 L345.4316 284.4648 L350.4316 287.4648 Z" clip-path="url(#clipPath3)" stroke="none"/>
      <path fill="none" d="M184.0627 463.7002 L184.0627 455.9653 L184.6877 452.5813 L186.5627 450.1642 L189.6877 448.7139 L194.0627 448.2305 L566.6591 448.2305 L571.0341 447.6055 L574.1591 445.7305 L576.0341 442.6055 L576.6591 438.2305 L576.6591 406.7305" clip-path="url(#clipPath3)"/>
      <path d="M576.6591 398.7305 L571.6591 410.7305 L576.6591 407.7305 L581.6591 410.7305 Z" clip-path="url(#clipPath3)" stroke="none"/>
    </g>
  </g>
</svg>
