<?xml version="1.0" encoding="UTF-8"?><svg xmlns="http://www.w3.org/2000/svg" xmlns:xlink="http://www.w3.org/1999/xlink" fill-opacity="1" color-rendering="auto" color-interpolation="auto" text-rendering="auto" stroke="black" stroke-linecap="square" width="752" stroke-miterlimit="10" shape-rendering="auto" stroke-opacity="1" fill="black" stroke-dasharray="none" font-weight="normal" stroke-width="1" height="541" font-family="'Dialog'" font-style="normal" stroke-linejoin="miter" font-size="12px" stroke-dashoffset="0" image-rendering="auto">
  <!--Generated by ySVG 2.5-->
  <defs id="genericDefs"/>
  <g>
    <defs id="defs1">
      <clipPath clipPathUnits="userSpaceOnUse" id="clipPath1">
        <path d="M0 0 L752 0 L752 541 L0 541 L0 0 Z"/>
      </clipPath>
      <clipPath clipPathUnits="userSpaceOnUse" id="clipPath2">
        <path d="M0 -29 L752 -29 L752 512 L0 512 L0 -29 Z"/>
      </clipPath>
      <clipPath clipPathUnits="userSpaceOnUse" id="clipPath3">
        <path d="M5 -24 L757 -24 L757 517 L5 517 L5 -24 Z"/>
      </clipPath>
    </defs>
    <g fill="silver" text-rendering="geometricPrecision" shape-rendering="geometricPrecision" transform="matrix(1,0,0,1,-5,24) translate(5,5)" stroke="silver">
      <rect x="174.4614" width="218.5566" height="30" y="61" clip-path="url(#clipPath2)" stroke="none"/>
    </g>
    <g fill="white" text-rendering="geometricPrecision" shape-rendering="geometricPrecision" transform="matrix(1,0,0,1,-5,24)" stroke="white">
      <rect x="174.4614" width="218.5566" height="30" y="61" clip-path="url(#clipPath3)" stroke="none"/>
    </g>
    <g text-rendering="geometricPrecision" stroke-miterlimit="1.45" shape-rendering="geometricPrecision" transform="matrix(1,0,0,1,-5,24)" stroke-linecap="butt">
      <rect fill="none" x="174.4614" width="218.5566" height="30" y="61" clip-path="url(#clipPath3)"/>
      <text x="181.4614" xml:space="preserve" y="80.5352" clip-path="url(#clipPath3)" font-family="sans-serif" stroke="none">Разработка технического задания</text>
    </g>
    <g fill="silver" text-rendering="geometricPrecision" shape-rendering="geometricPrecision" transform="matrix(1,0,0,1,-5,24) translate(5,5)" stroke="silver">
      <rect x="312.6353" width="102.9746" height="30" y="156.0664" clip-path="url(#clipPath2)" stroke="none"/>
    </g>
    <g fill="white" text-rendering="geometricPrecision" shape-rendering="geometricPrecision" transform="matrix(1,0,0,1,-5,24)" stroke="white">
      <rect x="312.6353" width="102.9746" height="30" y="156.0664" clip-path="url(#clipPath3)" stroke="none"/>
    </g>
    <g text-rendering="geometricPrecision" stroke-miterlimit="1.45" shape-rendering="geometricPrecision" transform="matrix(1,0,0,1,-5,24)" stroke-linecap="butt">
      <rect fill="none" x="312.6353" width="102.9746" height="30" y="156.0664" clip-path="url(#clipPath3)"/>
      <text x="319.6353" xml:space="preserve" y="175.6016" clip-path="url(#clipPath3)" font-family="sans-serif" stroke="none">Разработка ПО</text>
    </g>
    <g fill="silver" text-rendering="geometricPrecision" shape-rendering="geometricPrecision" transform="matrix(1,0,0,1,-5,24) translate(5,5)" stroke="silver">
      <rect x="368.6024" width="119.3809" height="30" y="265.1992" clip-path="url(#clipPath2)" stroke="none"/>
    </g>
    <g fill="white" text-rendering="geometricPrecision" shape-rendering="geometricPrecision" transform="matrix(1,0,0,1,-5,24)" stroke="white">
      <rect x="368.6024" width="119.3809" height="30" y="265.1992" clip-path="url(#clipPath3)" stroke="none"/>
    </g>
    <g text-rendering="geometricPrecision" stroke-miterlimit="1.45" shape-rendering="geometricPrecision" transform="matrix(1,0,0,1,-5,24)" stroke-linecap="butt">
      <rect fill="none" x="368.6024" width="119.3809" height="30" y="265.1992" clip-path="url(#clipPath3)"/>
      <text x="375.6024" xml:space="preserve" y="284.7344" clip-path="url(#clipPath3)" font-family="sans-serif" stroke="none">Тестирование ПО</text>
    </g>
    <g fill="silver" text-rendering="geometricPrecision" shape-rendering="geometricPrecision" transform="matrix(1,0,0,1,-5,24) translate(5,5)" stroke="silver">
      <rect x="414.3108" width="175.3086" height="30" y="360.2656" clip-path="url(#clipPath2)" stroke="none"/>
    </g>
    <g fill="white" text-rendering="geometricPrecision" shape-rendering="geometricPrecision" transform="matrix(1,0,0,1,-5,24)" stroke="white">
      <rect x="414.3108" width="175.3086" height="30" y="360.2656" clip-path="url(#clipPath3)" stroke="none"/>
    </g>
    <g text-rendering="geometricPrecision" stroke-miterlimit="1.45" shape-rendering="geometricPrecision" transform="matrix(1,0,0,1,-5,24)" stroke-linecap="butt">
      <rect fill="none" x="414.3108" width="175.3086" height="30" y="360.2656" clip-path="url(#clipPath3)"/>
      <text x="421.3108" xml:space="preserve" y="379.8008" clip-path="url(#clipPath3)" font-family="sans-serif" stroke="none">Подготовка документации</text>
      <text x="27.0001" xml:space="preserve" y="80.5352" clip-path="url(#clipPath3)" font-family="sans-serif" stroke="none">Входные данные</text>
      <text x="631.6196" xml:space="preserve" y="379.8008" clip-path="url(#clipPath3)" font-family="sans-serif" stroke="none">Готовый продукт</text>
      <text x="212.9754" xml:space="preserve" y="5.4023" clip-path="url(#clipPath3)" font-family="sans-serif" stroke="none">Заказ</text>
      <text x="185.0174" xml:space="preserve" y="19.5352" clip-path="url(#clipPath3)" font-family="sans-serif" stroke="none">программного</text>
      <text x="200.9901" xml:space="preserve" y="33.668" clip-path="url(#clipPath3)" font-family="sans-serif" stroke="none">продукта</text>
      <text x="530.7833" xml:space="preserve" y="19.5352" clip-path="url(#clipPath3)" font-family="sans-serif" stroke="none">План</text>
      <text x="372.6483" xml:space="preserve" y="490.8008" clip-path="url(#clipPath3)" font-family="sans-serif" stroke="none">Разработчик</text>
      <text x="490.8575" xml:space="preserve" y="490.8008" clip-path="url(#clipPath3)" font-family="sans-serif" stroke="none">Среда разработки</text>
      <path fill="none" d="M338.3788 91 L338.3789 148.0346" clip-path="url(#clipPath3)"/>
      <path d="M338.379 156.0346 L343.3789 144.0346 L338.3789 147.0346 L333.3789 144.0347 Z" clip-path="url(#clipPath3)" stroke="none"/>
      <text x="320.3047" xml:space="preserve" y="128.0684" clip-path="url(#clipPath3)" font-family="sans-serif" stroke="none">ТЗ</text>
      <path fill="none" d="M398.4475 186.0664 L398.4476 257.1606" clip-path="url(#clipPath3)"/>
      <path d="M398.4476 265.1606 L403.4476 253.1606 L398.4476 256.1606 L393.4476 253.1606 Z" clip-path="url(#clipPath3)" stroke="none"/>
      <text x="376.3011" xml:space="preserve" y="250.543" clip-path="url(#clipPath3)" font-family="sans-serif" stroke="none">ПО</text>
      <path fill="none" d="M458.1381 295.1992 L458.1379 352.2339" clip-path="url(#clipPath3)"/>
      <path d="M458.1379 360.2339 L463.1379 348.2339 L458.1379 351.2339 L453.1379 348.2339 Z" clip-path="url(#clipPath3)" stroke="none"/>
      <text x="435.9915" xml:space="preserve" y="345.6094" clip-path="url(#clipPath3)" font-family="sans-serif" stroke="none">ПО</text>
      <path fill="none" d="M135.461 76 L166.4233 76" clip-path="url(#clipPath3)"/>
      <path d="M174.4233 76 L162.4233 71 L165.4233 76 L162.4233 81 Z" clip-path="url(#clipPath3)" stroke="none"/>
      <path fill="none" d="M589.6194 375.2656 L616.5854 375.2656" clip-path="url(#clipPath3)"/>
      <path d="M624.5854 375.2656 L612.5854 370.2656 L615.5854 375.2656 L612.5854 380.2656 Z" clip-path="url(#clipPath3)" stroke="none"/>
      <path fill="none" d="M229.1004 30 L229.1005 52.9697" clip-path="url(#clipPath3)"/>
      <path d="M229.1005 60.9697 L234.1005 48.9697 L229.1005 51.9697 L224.1005 48.9697 Z" clip-path="url(#clipPath3)" stroke="none"/>
      <path fill="none" d="M545.7921 30 L545.7921 37.75 L545.1671 41.1406 L543.2921 43.5625 L540.1671 45.0156 L535.7921 45.5 L348.3788 45.5 L340.8788 46.4337 L339.0038 47.6009 L338.3788 49.2349 L338.3788 52.9697" clip-path="url(#clipPath3)"/>
      <path d="M338.3788 60.9697 L343.3788 48.9697 L338.3788 51.9697 L333.3788 48.9697 Z" clip-path="url(#clipPath3)" stroke="none"/>
      <path fill="none" d="M545.7921 30 L545.7921 37.75 L545.1671 41.1406 L543.2921 43.5625 L540.1671 45.0156 L535.7921 45.5 L423.5182 45.5 L419.1432 46.125 L416.0182 48 L414.1432 51.125 L413.5182 55.5 L413.5182 130.5664 L412.8932 134.9414 L411.0182 138.0664 L407.8932 139.9414 L403.5182 140.5664 L399.8663 140.5664 L392.3663 141.5001 L390.4913 142.6673 L389.8663 144.3013 L389.8663 148.0361" clip-path="url(#clipPath3)"/>
      <path d="M389.8663 156.0361 L394.8663 144.0361 L389.8663 147.0361 L384.8663 144.0361 Z" clip-path="url(#clipPath3)" stroke="none"/>
      <path fill="none" d="M545.7921 30 L545.7921 37.75 L545.1671 41.1406 L543.2921 43.5625 L540.1671 45.0156 L535.7921 45.5 L468.1381 45.5 L463.7631 46.125 L460.6381 48 L458.7631 51.125 L458.1381 55.5 L458.1381 257.1724" clip-path="url(#clipPath3)"/>
      <path d="M458.1381 265.1724 L463.1381 253.1724 L458.1381 256.1724 L453.1381 253.1724 Z" clip-path="url(#clipPath3)" stroke="none"/>
      <path fill="none" d="M545.7921 30 L545.7922 352.2253" clip-path="url(#clipPath3)"/>
      <path d="M545.7922 360.2253 L550.7922 348.2253 L545.7922 351.2253 L540.7922 348.2253 Z" clip-path="url(#clipPath3)" stroke="none"/>
      <path fill="none" d="M409.7528 471.2349 L409.7528 449.7656 L409.1278 445.3906 L407.2528 442.2656 L404.1278 440.3906 L399.7528 439.7656 L239.1004 439.7656 L234.7254 439.1406 L231.6004 437.2656 L229.7254 434.1406 L229.1004 429.7656 L229.1005 99" clip-path="url(#clipPath3)"/>
      <path d="M229.1005 91 L224.1005 103 L229.1005 100 L234.1005 103 Z" clip-path="url(#clipPath3)" stroke="none"/>
      <path fill="none" d="M409.7528 471.2349 L409.7528 449.7656 L409.1278 445.3906 L407.2528 442.2656 L404.1278 440.3906 L399.7528 439.7656 L339.7976 439.7656 L335.4226 439.1406 L332.2976 437.2656 L330.4226 434.1406 L329.7976 429.7656 L329.7978 194.0664" clip-path="url(#clipPath3)"/>
      <path d="M329.7978 186.0664 L324.7978 198.0664 L329.7978 195.0664 L334.7978 198.0664 Z" clip-path="url(#clipPath3)" stroke="none"/>
      <path fill="none" d="M409.7528 471.2349 L409.7528 449.7656 L409.2858 445.3906 L407.885 442.2656 L405.5503 440.3906 L402.2817 439.7656 L402.2817 439.7656 L399.0132 439.1406 L396.6785 437.2656 L395.2776 434.1406 L394.8107 429.7656 L394.8107 325.6992 L395.2653 318.1992 L396.6292 315.6992 L396.6292 315.6992 L397.993 314.1367 L398.4476 309.4492 L398.4476 303.1992" clip-path="url(#clipPath3)"/>
      <path d="M398.4476 295.1992 L393.4476 307.1992 L398.4476 304.1992 L403.4476 307.1992 Z" clip-path="url(#clipPath3)" stroke="none"/>
      <path fill="none" d="M409.7528 471.2349 L409.7528 449.7656 L410.3778 445.3906 L412.2528 442.2656 L415.3778 440.3906 L419.7528 439.7656 L448.1381 439.7656 L452.5131 439.1406 L455.6381 437.2656 L457.5131 434.1406 L458.1381 429.7656 L458.138 398.2656" clip-path="url(#clipPath3)"/>
      <path d="M458.1379 390.2656 L453.138 402.2657 L458.138 399.2656 L463.138 402.2656 Z" clip-path="url(#clipPath3)" stroke="none"/>
      <path fill="none" d="M545.7921 471.2354 L545.7921 463.5005 L545.1671 460.1165 L543.2921 457.6993 L540.1671 456.2491 L535.7921 455.7656 L363.1024 455.7656 L358.7274 455.1406 L355.6024 453.2656 L353.7274 450.1406 L353.1024 445.7656 L353.1024 216.5664 L354.4799 209.0664 L356.2018 207.1914 L358.6125 206.5664 L358.6125 206.5664 L362.7451 205.0039 L364.1226 200.3164 L364.1226 194.0664" clip-path="url(#clipPath3)"/>
      <path d="M364.1226 186.0664 L359.1226 198.0664 L364.1226 195.0664 L369.1226 198.0664 Z" clip-path="url(#clipPath3)" stroke="none"/>
      <path fill="none" d="M545.7921 471.2261 L545.7922 398.2656" clip-path="url(#clipPath3)"/>
      <path d="M545.7922 390.2656 L540.7922 402.2656 L545.7922 399.2656 L550.7922 402.2656 Z" clip-path="url(#clipPath3)" stroke="none"/>
    </g>
  </g>
</svg>
