<?xml version="1.0" encoding="UTF-8" standalone="no"?>
<!DOCTYPE svg PUBLIC "-//W3C//DTD SVG 1.1//EN"
 "http://www.w3.org/Graphics/SVG/1.1/DTD/svg11.dtd">
<!-- Generated by graphviz version 2.40.1 (20161225.0304)
 -->
<!-- Title: G Pages: 1 -->
<svg width="490pt" height="476pt"
 viewBox="0.00 0.00 489.58 476.00" xmlns="http://www.w3.org/2000/svg" xmlns:xlink="http://www.w3.org/1999/xlink">
<g id="graph0" class="graph" transform="scale(1 1) rotate(0) translate(4 472)">
<title>G</title>
<polygon fill="#ffffff" stroke="transparent" points="-4,4 -4,-472 485.585,-472 485.585,4 -4,4"/>
<!-- AZ1 -->
<g id="node1" class="node">
<title>AZ1</title>
<polygon fill="none" stroke="#000000" points="173.2154,-468 58.3696,-468 58.3696,-432 173.2154,-432 173.2154,-468"/>
<text text-anchor="middle" x="115.7925" y="-445.8" font-family="Helvetica,sans-Serif" font-size="14.00" fill="#000000">Анализ задачи</text>
</g>
<!-- SA1 -->
<g id="node2" class="node">
<title>SA1</title>
<polygon fill="none" stroke="#000000" points="203.9175,-396 27.6674,-396 27.6674,-360 203.9175,-360 203.9175,-396"/>
<text text-anchor="middle" x="115.7925" y="-373.8" font-family="Helvetica,sans-Serif" font-size="14.00" fill="#000000">Составление алгоритма</text>
</g>
<!-- AZ1&#45;&gt;SA1 -->
<g id="edge1" class="edge">
<title>AZ1&#45;&gt;SA1</title>
<path fill="none" stroke="#000000" d="M115.7925,-431.8314C115.7925,-424.131 115.7925,-414.9743 115.7925,-406.4166"/>
<polygon fill="#000000" stroke="#000000" points="119.2926,-406.4132 115.7925,-396.4133 112.2926,-406.4133 119.2926,-406.4132"/>
</g>
<!-- OSR1 -->
<g id="node3" class="node">
<title>OSR1</title>
<polygon fill="none" stroke="#000000" points="231.3778,-324 .2071,-324 .2071,-288 231.3778,-288 231.3778,-324"/>
<text text-anchor="middle" x="115.7925" y="-301.8" font-family="Helvetica,sans-Serif" font-size="14.00" fill="#000000">Определение среды разработки</text>
</g>
<!-- SA1&#45;&gt;OSR1 -->
<g id="edge2" class="edge">
<title>SA1&#45;&gt;OSR1</title>
<path fill="none" stroke="#000000" d="M115.7925,-359.8314C115.7925,-352.131 115.7925,-342.9743 115.7925,-334.4166"/>
<polygon fill="#000000" stroke="#000000" points="119.2926,-334.4132 115.7925,-324.4133 112.2926,-334.4133 119.2926,-334.4132"/>
</g>
<!-- SOP1 -->
<g id="node4" class="node">
<title>SOP1</title>
<polygon fill="none" stroke="#000000" points="223.5456,-252 8.0394,-252 8.0394,-216 223.5456,-216 223.5456,-252"/>
<text text-anchor="middle" x="115.7925" y="-229.8" font-family="Helvetica,sans-Serif" font-size="14.00" fill="#000000">Создание остова приложения</text>
</g>
<!-- OSR1&#45;&gt;SOP1 -->
<g id="edge3" class="edge">
<title>OSR1&#45;&gt;SOP1</title>
<path fill="none" stroke="#000000" d="M115.7925,-287.8314C115.7925,-280.131 115.7925,-270.9743 115.7925,-262.4166"/>
<polygon fill="#000000" stroke="#000000" points="119.2926,-262.4132 115.7925,-252.4133 112.2926,-262.4133 119.2926,-262.4132"/>
</g>
<!-- RF1 -->
<g id="node5" class="node">
<title>RF1</title>
<polygon fill="none" stroke="#000000" points="193.8403,-180 37.7446,-180 37.7446,-144 193.8403,-144 193.8403,-180"/>
<text text-anchor="middle" x="115.7925" y="-157.8" font-family="Helvetica,sans-Serif" font-size="14.00" fill="#000000">Разработка функций</text>
</g>
<!-- SOP1&#45;&gt;RF1 -->
<g id="edge4" class="edge">
<title>SOP1&#45;&gt;RF1</title>
<path fill="none" stroke="#000000" d="M115.7925,-215.8314C115.7925,-208.131 115.7925,-198.9743 115.7925,-190.4166"/>
<polygon fill="#000000" stroke="#000000" points="119.2926,-190.4132 115.7925,-180.4133 112.2926,-190.4133 119.2926,-190.4132"/>
</g>
<!-- R1 -->
<g id="node6" class="node">
<title>R1</title>
<polygon fill="none" stroke="#000000" points="163.6705,-108 67.9145,-108 67.9145,-72 163.6705,-72 163.6705,-108"/>
<text text-anchor="middle" x="115.7925" y="-85.8" font-family="Helvetica,sans-Serif" font-size="14.00" fill="#000000">Реализация</text>
</g>
<!-- RF1&#45;&gt;R1 -->
<g id="edge5" class="edge">
<title>RF1&#45;&gt;R1</title>
<path fill="none" stroke="#000000" d="M115.7925,-143.8314C115.7925,-136.131 115.7925,-126.9743 115.7925,-118.4166"/>
<polygon fill="#000000" stroke="#000000" points="119.2926,-118.4132 115.7925,-108.4133 112.2926,-118.4133 119.2926,-118.4132"/>
</g>
<!-- AZ2 -->
<g id="node7" class="node">
<title>AZ2</title>
<polygon fill="none" stroke="#000000" points="423.2154,-468 308.3696,-468 308.3696,-432 423.2154,-432 423.2154,-468"/>
<text text-anchor="middle" x="365.7925" y="-445.8" font-family="Helvetica,sans-Serif" font-size="14.00" fill="#000000">Анализ задачи</text>
</g>
<!-- SA2 -->
<g id="node8" class="node">
<title>SA2</title>
<polygon fill="none" stroke="#000000" points="453.9175,-396 277.6674,-396 277.6674,-360 453.9175,-360 453.9175,-396"/>
<text text-anchor="middle" x="365.7925" y="-373.8" font-family="Helvetica,sans-Serif" font-size="14.00" fill="#000000">Составление алгоритма</text>
</g>
<!-- AZ2&#45;&gt;SA2 -->
<g id="edge6" class="edge">
<title>AZ2&#45;&gt;SA2</title>
<path fill="none" stroke="#000000" d="M365.7925,-431.8314C365.7925,-424.131 365.7925,-414.9743 365.7925,-406.4166"/>
<polygon fill="#000000" stroke="#000000" points="369.2926,-406.4132 365.7925,-396.4133 362.2926,-406.4133 369.2926,-406.4132"/>
</g>
<!-- OSR2 -->
<g id="node9" class="node">
<title>OSR2</title>
<polygon fill="none" stroke="#000000" points="481.3778,-324 250.2071,-324 250.2071,-288 481.3778,-288 481.3778,-324"/>
<text text-anchor="middle" x="365.7925" y="-301.8" font-family="Helvetica,sans-Serif" font-size="14.00" fill="#000000">Определение среды разработки</text>
</g>
<!-- SA2&#45;&gt;OSR2 -->
<g id="edge7" class="edge">
<title>SA2&#45;&gt;OSR2</title>
<path fill="none" stroke="#000000" d="M365.7925,-359.8314C365.7925,-352.131 365.7925,-342.9743 365.7925,-334.4166"/>
<polygon fill="#000000" stroke="#000000" points="369.2926,-334.4132 365.7925,-324.4133 362.2926,-334.4133 369.2926,-334.4132"/>
</g>
<!-- RI2 -->
<g id="node10" class="node">
<title>RI2</title>
<polygon fill="none" stroke="#000000" points="454.8243,-252 276.7606,-252 276.7606,-216 454.8243,-216 454.8243,-252"/>
<text text-anchor="middle" x="365.7925" y="-229.8" font-family="Helvetica,sans-Serif" font-size="14.00" fill="#000000">Разработка интерфейса</text>
</g>
<!-- OSR2&#45;&gt;RI2 -->
<g id="edge8" class="edge">
<title>OSR2&#45;&gt;RI2</title>
<path fill="none" stroke="#000000" d="M365.7925,-287.8314C365.7925,-280.131 365.7925,-270.9743 365.7925,-262.4166"/>
<polygon fill="#000000" stroke="#000000" points="369.2926,-262.4132 365.7925,-252.4133 362.2926,-262.4133 369.2926,-262.4132"/>
</g>
<!-- SOP2 -->
<g id="node11" class="node">
<title>SOP2</title>
<polygon fill="none" stroke="#000000" points="473.5456,-180 258.0394,-180 258.0394,-144 473.5456,-144 473.5456,-180"/>
<text text-anchor="middle" x="365.7925" y="-157.8" font-family="Helvetica,sans-Serif" font-size="14.00" fill="#000000">Создание остова приложения</text>
</g>
<!-- RI2&#45;&gt;SOP2 -->
<g id="edge9" class="edge">
<title>RI2&#45;&gt;SOP2</title>
<path fill="none" stroke="#000000" d="M365.7925,-215.8314C365.7925,-208.131 365.7925,-198.9743 365.7925,-190.4166"/>
<polygon fill="#000000" stroke="#000000" points="369.2926,-190.4132 365.7925,-180.4133 362.2926,-190.4133 369.2926,-190.4132"/>
</g>
<!-- RF2 -->
<g id="node12" class="node">
<title>RF2</title>
<polygon fill="none" stroke="#000000" points="443.8403,-108 287.7446,-108 287.7446,-72 443.8403,-72 443.8403,-108"/>
<text text-anchor="middle" x="365.7925" y="-85.8" font-family="Helvetica,sans-Serif" font-size="14.00" fill="#000000">Разработка функций</text>
</g>
<!-- SOP2&#45;&gt;RF2 -->
<g id="edge10" class="edge">
<title>SOP2&#45;&gt;RF2</title>
<path fill="none" stroke="#000000" d="M365.7925,-143.8314C365.7925,-136.131 365.7925,-126.9743 365.7925,-118.4166"/>
<polygon fill="#000000" stroke="#000000" points="369.2926,-118.4132 365.7925,-108.4133 362.2926,-118.4133 369.2926,-118.4132"/>
</g>
<!-- R2 -->
<g id="node13" class="node">
<title>R2</title>
<polygon fill="none" stroke="#000000" points="413.6705,-36 317.9145,-36 317.9145,0 413.6705,0 413.6705,-36"/>
<text text-anchor="middle" x="365.7925" y="-13.8" font-family="Helvetica,sans-Serif" font-size="14.00" fill="#000000">Реализация</text>
</g>
<!-- RF2&#45;&gt;R2 -->
<g id="edge11" class="edge">
<title>RF2&#45;&gt;R2</title>
<path fill="none" stroke="#000000" d="M365.7925,-71.8314C365.7925,-64.131 365.7925,-54.9743 365.7925,-46.4166"/>
<polygon fill="#000000" stroke="#000000" points="369.2926,-46.4132 365.7925,-36.4133 362.2926,-46.4133 369.2926,-46.4132"/>
</g>
</g>
</svg>
