<?xml version="1.0" encoding="UTF-8" standalone="no"?>
<!DOCTYPE svg PUBLIC "-//W3C//DTD SVG 1.1//EN"
 "http://www.w3.org/Graphics/SVG/1.1/DTD/svg11.dtd">
<!-- Generated by graphviz version 2.40.1 (20161225.0304)
 -->
<!-- Title: G Pages: 1 -->
<svg width="282pt" height="692pt"
 viewBox="0.00 0.00 282.00 692.00" xmlns="http://www.w3.org/2000/svg" xmlns:xlink="http://www.w3.org/1999/xlink">
<g id="graph0" class="graph" transform="scale(1 1) rotate(0) translate(4 688)">
<title>G</title>
<polygon fill="#ffffff" stroke="transparent" points="-4,4 -4,-688 278,-688 278,4 -4,4"/>
<!-- AZ -->
<g id="node1" class="node">
<title>AZ</title>
<polygon fill="none" stroke="#000000" points="164.749,-684 49.9033,-684 49.9033,-648 164.749,-648 164.749,-684"/>
<text text-anchor="middle" x="107.3262" y="-661.8" font-family="Helvetica,sans-Serif" font-size="14.00" fill="#000000">Анализ задачи</text>
</g>
<!-- VT -->
<g id="node11" class="node">
<title>VT</title>
<polygon fill="none" stroke="#000000" points="192.4896,-612 22.1628,-612 22.1628,-576 192.4896,-576 192.4896,-612"/>
<text text-anchor="middle" x="107.3262" y="-589.8" font-family="Helvetica,sans-Serif" font-size="14.00" fill="#000000">Выработка требований</text>
</g>
<!-- AZ&#45;&gt;VT -->
<g id="edge1" class="edge">
<title>AZ&#45;&gt;VT</title>
<path fill="none" stroke="#000000" d="M107.3262,-647.8314C107.3262,-640.131 107.3262,-630.9743 107.3262,-622.4166"/>
<polygon fill="#000000" stroke="#000000" points="110.8263,-622.4132 107.3262,-612.4133 103.8263,-622.4133 110.8263,-622.4132"/>
</g>
<!-- E -->
<g id="node2" class="node">
<title>E</title>
<polygon fill="none" stroke="#000000" points="162.4776,-108 52.1747,-108 52.1747,-72 162.4776,-72 162.4776,-108"/>
<text text-anchor="middle" x="107.3262" y="-85.8" font-family="Helvetica,sans-Serif" font-size="14.00" fill="#000000">Эксплуатация</text>
</g>
<!-- VE -->
<g id="node10" class="node">
<title>VE</title>
<polygon fill="none" stroke="#000000" points="194.1954,-36 20.457,-36 20.457,0 194.1954,0 194.1954,-36"/>
<text text-anchor="middle" x="107.3262" y="-13.8" font-family="Helvetica,sans-Serif" font-size="14.00" fill="#000000">Вывод из эксплуатации</text>
</g>
<!-- E&#45;&gt;VE -->
<g id="edge9" class="edge">
<title>E&#45;&gt;VE</title>
<path fill="none" stroke="#000000" d="M107.3262,-71.8314C107.3262,-64.131 107.3262,-54.9743 107.3262,-46.4166"/>
<polygon fill="#000000" stroke="#000000" points="110.8263,-46.4132 107.3262,-36.4133 103.8263,-46.4133 110.8263,-46.4132"/>
</g>
<!-- FD -->
<g id="node3" class="node">
<title>FD</title>
<polygon fill="none" stroke="#000000" points="214.4788,-180 .1735,-180 .1735,-144 214.4788,-144 214.4788,-180"/>
<text text-anchor="middle" x="107.3262" y="-157.8" font-family="Helvetica,sans-Serif" font-size="14.00" fill="#000000">Формирование документации</text>
</g>
<!-- FD&#45;&gt;E -->
<g id="edge8" class="edge">
<title>FD&#45;&gt;E</title>
<path fill="none" stroke="#000000" d="M107.3262,-143.8314C107.3262,-136.131 107.3262,-126.9743 107.3262,-118.4166"/>
<polygon fill="#000000" stroke="#000000" points="110.8263,-118.4132 107.3262,-108.4133 103.8263,-118.4133 110.8263,-118.4132"/>
</g>
<!-- M -->
<g id="node4" class="node">
<title>M</title>
<polygon fill="none" stroke="#000000" points="274.1744,-324 162.478,-324 162.478,-288 274.1744,-288 274.1744,-324"/>
<text text-anchor="middle" x="218.3262" y="-301.8" font-family="Helvetica,sans-Serif" font-size="14.00" fill="#000000">Модификация</text>
</g>
<!-- S -->
<g id="node9" class="node">
<title>S</title>
<polygon fill="none" stroke="#000000" points="136.0262,-252 78.6262,-252 78.6262,-216 136.0262,-216 136.0262,-252"/>
<text text-anchor="middle" x="107.3262" y="-229.8" font-family="Helvetica,sans-Serif" font-size="14.00" fill="#000000">Сдача</text>
</g>
<!-- M&#45;&gt;S -->
<g id="edge11" class="edge">
<title>M:s&#45;&gt;S:e</title>
<path fill="none" stroke="#000000" d="M217.57,-277.9203C211.9968,-242.7325 176.3837,-234 136.3262,-234"/>
<polygon fill="#000000" stroke="#000000" points="214.0878,-278.2899 218.3262,-288 221.0682,-277.7662 214.0878,-278.2899"/>
</g>
<!-- O -->
<g id="node5" class="node">
<title>O</title>
<polygon fill="none" stroke="#000000" points="143.9813,-324 70.6711,-324 70.6711,-288 143.9813,-288 143.9813,-324"/>
<text text-anchor="middle" x="107.3262" y="-301.8" font-family="Helvetica,sans-Serif" font-size="14.00" fill="#000000">Отладка</text>
</g>
<!-- O&#45;&gt;S -->
<g id="edge6" class="edge">
<title>O&#45;&gt;S</title>
<path fill="none" stroke="#000000" d="M107.3262,-287.8314C107.3262,-280.131 107.3262,-270.9743 107.3262,-262.4166"/>
<polygon fill="#000000" stroke="#000000" points="110.8263,-262.4132 107.3262,-252.4133 103.8263,-262.4133 110.8263,-262.4132"/>
</g>
<!-- PA -->
<g id="node6" class="node">
<title>PA</title>
<polygon fill="none" stroke="#000000" points="211.2793,-468 3.373,-468 3.373,-432 211.2793,-432 211.2793,-468"/>
<text text-anchor="middle" x="107.3262" y="-445.8" font-family="Helvetica,sans-Serif" font-size="14.00" fill="#000000">Проектирование алгоритмов</text>
</g>
<!-- R -->
<g id="node8" class="node">
<title>R</title>
<polygon fill="none" stroke="#000000" points="155.2042,-396 59.4482,-396 59.4482,-360 155.2042,-360 155.2042,-396"/>
<text text-anchor="middle" x="107.3262" y="-373.8" font-family="Helvetica,sans-Serif" font-size="14.00" fill="#000000">Реализация</text>
</g>
<!-- PA&#45;&gt;R -->
<g id="edge4" class="edge">
<title>PA&#45;&gt;R</title>
<path fill="none" stroke="#000000" d="M107.3262,-431.8314C107.3262,-424.131 107.3262,-414.9743 107.3262,-406.4166"/>
<polygon fill="#000000" stroke="#000000" points="110.8263,-406.4132 107.3262,-396.4133 103.8263,-406.4133 110.8263,-406.4132"/>
</g>
<!-- PI -->
<g id="node7" class="node">
<title>PI</title>
<polygon fill="none" stroke="#000000" points="213.21,-540 1.4424,-540 1.4424,-504 213.21,-504 213.21,-540"/>
<text text-anchor="middle" x="107.3262" y="-517.8" font-family="Helvetica,sans-Serif" font-size="14.00" fill="#000000">Проектирование интерфейса</text>
</g>
<!-- PI&#45;&gt;PA -->
<g id="edge3" class="edge">
<title>PI&#45;&gt;PA</title>
<path fill="none" stroke="#000000" d="M107.3262,-503.8314C107.3262,-496.131 107.3262,-486.9743 107.3262,-478.4166"/>
<polygon fill="#000000" stroke="#000000" points="110.8263,-478.4132 107.3262,-468.4133 103.8263,-478.4133 110.8263,-478.4132"/>
</g>
<!-- R&#45;&gt;M -->
<g id="edge10" class="edge">
<title>R:e&#45;&gt;M:n</title>
<path fill="none" stroke="#000000" d="M165.4019,-377.5464C196.8726,-374.616 218.3262,-357.4208 218.3262,-324"/>
<polygon fill="#000000" stroke="#000000" points="165.1586,-374.0537 155.3262,-378 165.4735,-381.0466 165.1586,-374.0537"/>
</g>
<!-- R&#45;&gt;O -->
<g id="edge5" class="edge">
<title>R&#45;&gt;O</title>
<path fill="none" stroke="#000000" d="M107.3262,-359.8314C107.3262,-352.131 107.3262,-342.9743 107.3262,-334.4166"/>
<polygon fill="#000000" stroke="#000000" points="110.8263,-334.4132 107.3262,-324.4133 103.8263,-334.4133 110.8263,-334.4132"/>
</g>
<!-- S&#45;&gt;FD -->
<g id="edge7" class="edge">
<title>S&#45;&gt;FD</title>
<path fill="none" stroke="#000000" d="M107.3262,-215.8314C107.3262,-208.131 107.3262,-198.9743 107.3262,-190.4166"/>
<polygon fill="#000000" stroke="#000000" points="110.8263,-190.4132 107.3262,-180.4133 103.8263,-190.4133 110.8263,-190.4132"/>
</g>
<!-- VT&#45;&gt;PI -->
<g id="edge2" class="edge">
<title>VT&#45;&gt;PI</title>
<path fill="none" stroke="#000000" d="M107.3262,-575.8314C107.3262,-568.131 107.3262,-558.9743 107.3262,-550.4166"/>
<polygon fill="#000000" stroke="#000000" points="110.8263,-550.4132 107.3262,-540.4133 103.8263,-550.4133 110.8263,-550.4132"/>
</g>
</g>
</svg>
