<?xml version="1.0" encoding="UTF-8" standalone="no"?>
<!DOCTYPE svg PUBLIC "-//W3C//DTD SVG 1.1//EN"
 "http://www.w3.org/Graphics/SVG/1.1/DTD/svg11.dtd">
<!-- Generated by graphviz version 2.40.1 (20161225.0304)
 -->
<!-- Title: G Pages: 1 -->
<svg width="322pt" height="404pt"
 viewBox="0.00 0.00 321.73 404.00" xmlns="http://www.w3.org/2000/svg" xmlns:xlink="http://www.w3.org/1999/xlink">
<g id="graph0" class="graph" transform="scale(1 1) rotate(0) translate(4 400)">
<title>G</title>
<polygon fill="#ffffff" stroke="transparent" points="-4,4 -4,-400 317.7295,-400 317.7295,4 -4,4"/>
<!-- PZ -->
<g id="node1" class="node">
<title>PZ</title>
<polygon fill="none" stroke="#000000" points="145.0425,-396 -.0142,-396 -.0142,-360 145.0425,-360 145.0425,-396"/>
<text text-anchor="middle" x="72.5142" y="-373.8" font-family="Helvetica,sans-Serif" font-size="14.00" fill="#000000">Постановка задачи</text>
</g>
<!-- TPO -->
<g id="node2" class="node">
<title>TPO</title>
<polygon fill="none" stroke="#000000" points="288.3848,-396 162.6435,-396 162.6435,-360 294.3848,-360 294.3848,-390 288.3848,-396"/>
<polyline fill="none" stroke="#000000" points="288.3848,-396 288.3848,-390 "/>
<polyline fill="none" stroke="#000000" points="294.3848,-390 288.3848,-390 "/>
<text text-anchor="middle" x="228.5142" y="-373.8" font-family="Helvetica,sans-Serif" font-size="14.00" fill="#000000">Требования к ПО</text>
</g>
<!-- PZ&#45;&gt;TPO -->
<g id="edge1" class="edge">
<title>PZ&#45;&gt;TPO</title>
<path fill="none" stroke="#000000" d="M145.0298,-378C147.5062,-378 149.9826,-378 152.459,-378"/>
<polygon fill="#000000" stroke="#000000" points="152.6398,-381.5001 162.6398,-378 152.6397,-374.5001 152.6398,-381.5001"/>
</g>
<!-- A -->
<g id="node3" class="node">
<title>A</title>
<polygon fill="none" stroke="#000000" points="104.7901,-324 40.2382,-324 40.2382,-288 104.7901,-288 104.7901,-324"/>
<text text-anchor="middle" x="72.5142" y="-301.8" font-family="Helvetica,sans-Serif" font-size="14.00" fill="#000000">Анализ</text>
</g>
<!-- PZ&#45;&gt;A -->
<g id="edge7" class="edge">
<title>PZ&#45;&gt;A</title>
<path fill="none" stroke="#000000" d="M72.5142,-359.8314C72.5142,-352.131 72.5142,-342.9743 72.5142,-334.4166"/>
<polygon fill="#000000" stroke="#000000" points="76.0143,-334.4132 72.5142,-324.4133 69.0143,-334.4133 76.0143,-334.4132"/>
</g>
<!-- OR -->
<g id="node4" class="node">
<title>OR</title>
<polygon fill="none" stroke="#000000" points="307.9454,-324 143.083,-324 143.083,-288 313.9454,-288 313.9454,-318 307.9454,-324"/>
<polyline fill="none" stroke="#000000" points="307.9454,-324 307.9454,-318 "/>
<polyline fill="none" stroke="#000000" points="313.9454,-318 307.9454,-318 "/>
<text text-anchor="middle" x="228.5142" y="-301.8" font-family="Helvetica,sans-Serif" font-size="14.00" fill="#000000">Оценка реализуемости</text>
</g>
<!-- TPO&#45;&gt;OR -->
<!-- A&#45;&gt;OR -->
<g id="edge2" class="edge">
<title>A&#45;&gt;OR</title>
<path fill="none" stroke="#000000" d="M104.811,-306C114.1557,-306 123.5004,-306 132.8451,-306"/>
<polygon fill="#000000" stroke="#000000" points="132.9851,-309.5001 142.985,-306 132.985,-302.5001 132.9851,-309.5001"/>
</g>
<!-- Pj -->
<g id="node5" class="node">
<title>Pj</title>
<polygon fill="none" stroke="#000000" points="136.0913,-252 8.937,-252 8.937,-216 136.0913,-216 136.0913,-252"/>
<text text-anchor="middle" x="72.5142" y="-229.8" font-family="Helvetica,sans-Serif" font-size="14.00" fill="#000000">Проектирование</text>
</g>
<!-- A&#45;&gt;Pj -->
<g id="edge8" class="edge">
<title>A&#45;&gt;Pj</title>
<path fill="none" stroke="#000000" d="M72.5142,-287.8314C72.5142,-280.131 72.5142,-270.9743 72.5142,-262.4166"/>
<polygon fill="#000000" stroke="#000000" points="76.0143,-262.4132 72.5142,-252.4133 69.0143,-262.4133 76.0143,-262.4132"/>
</g>
<!-- S -->
<g id="node6" class="node">
<title>S</title>
<polygon fill="none" stroke="#000000" points="281.4603,-252 169.568,-252 169.568,-216 287.4603,-216 287.4603,-246 281.4603,-252"/>
<polyline fill="none" stroke="#000000" points="281.4603,-252 281.4603,-246 "/>
<polyline fill="none" stroke="#000000" points="287.4603,-246 281.4603,-246 "/>
<text text-anchor="middle" x="228.5142" y="-229.8" font-family="Helvetica,sans-Serif" font-size="14.00" fill="#000000">Спецификации</text>
</g>
<!-- OR&#45;&gt;S -->
<!-- Pj&#45;&gt;S -->
<g id="edge3" class="edge">
<title>Pj&#45;&gt;S</title>
<path fill="none" stroke="#000000" d="M136.1938,-234C143.967,-234 151.7402,-234 159.5134,-234"/>
<polygon fill="#000000" stroke="#000000" points="159.7321,-237.5001 169.7321,-234 159.7321,-230.5001 159.7321,-237.5001"/>
</g>
<!-- Pg -->
<g id="node7" class="node">
<title>Pg</title>
<polygon fill="none" stroke="#000000" points="144.9964,-180 .0319,-180 .0319,-144 144.9964,-144 144.9964,-180"/>
<text text-anchor="middle" x="72.5142" y="-157.8" font-family="Helvetica,sans-Serif" font-size="14.00" fill="#000000">Программирование</text>
</g>
<!-- Pj&#45;&gt;Pg -->
<g id="edge9" class="edge">
<title>Pj&#45;&gt;Pg</title>
<path fill="none" stroke="#000000" d="M72.5142,-215.8314C72.5142,-208.131 72.5142,-198.9743 72.5142,-190.4166"/>
<polygon fill="#000000" stroke="#000000" points="76.0143,-190.4132 72.5142,-180.4133 69.0143,-190.4133 76.0143,-190.4132"/>
</g>
<!-- IK -->
<g id="node8" class="node">
<title>IK</title>
<polygon fill="none" stroke="#000000" points="277.7889,-180 173.2394,-180 173.2394,-144 283.7889,-144 283.7889,-174 277.7889,-180"/>
<polyline fill="none" stroke="#000000" points="277.7889,-180 277.7889,-174 "/>
<polyline fill="none" stroke="#000000" points="283.7889,-174 277.7889,-174 "/>
<text text-anchor="middle" x="228.5142" y="-157.8" font-family="Helvetica,sans-Serif" font-size="14.00" fill="#000000">Исходный код</text>
</g>
<!-- S&#45;&gt;IK -->
<!-- Pg&#45;&gt;IK -->
<g id="edge4" class="edge">
<title>Pg&#45;&gt;IK</title>
<path fill="none" stroke="#000000" d="M145.0298,-162C151.0187,-162 157.0076,-162 162.9965,-162"/>
<polygon fill="#000000" stroke="#000000" points="163.0754,-165.5001 173.0753,-162 163.0753,-158.5001 163.0754,-165.5001"/>
</g>
<!-- VP -->
<g id="node9" class="node">
<title>VP</title>
<polygon fill="none" stroke="#000000" points="137.606,-108 7.4223,-108 7.4223,-72 137.606,-72 137.606,-108"/>
<text text-anchor="middle" x="72.5142" y="-85.8" font-family="Helvetica,sans-Serif" font-size="14.00" fill="#000000">Выпуск продукта</text>
</g>
<!-- Pg&#45;&gt;VP -->
<g id="edge10" class="edge">
<title>Pg&#45;&gt;VP</title>
<path fill="none" stroke="#000000" d="M72.5142,-143.8314C72.5142,-136.131 72.5142,-126.9743 72.5142,-118.4166"/>
<polygon fill="#000000" stroke="#000000" points="76.0143,-118.4132 72.5142,-108.4133 69.0143,-118.4133 76.0143,-118.4132"/>
</g>
<!-- D -->
<g id="node10" class="node">
<title>D</title>
<polygon fill="none" stroke="#000000" points="278.4429,-108 172.5854,-108 172.5854,-72 284.4429,-72 284.4429,-102 278.4429,-108"/>
<polyline fill="none" stroke="#000000" points="278.4429,-108 278.4429,-102 "/>
<polyline fill="none" stroke="#000000" points="284.4429,-102 278.4429,-102 "/>
<text text-anchor="middle" x="228.5142" y="-85.8" font-family="Helvetica,sans-Serif" font-size="14.00" fill="#000000">Документация</text>
</g>
<!-- IK&#45;&gt;D -->
<!-- VP&#45;&gt;D -->
<g id="edge5" class="edge">
<title>VP&#45;&gt;D</title>
<path fill="none" stroke="#000000" d="M137.7173,-90C145.9542,-90 154.1912,-90 162.4282,-90"/>
<polygon fill="#000000" stroke="#000000" points="162.4755,-93.5001 172.4755,-90 162.4754,-86.5001 162.4755,-93.5001"/>
</g>
<!-- V -->
<g id="node11" class="node">
<title>V</title>
<polygon fill="none" stroke="#000000" points="116.7217,-36 28.3066,-36 28.3066,0 116.7217,0 116.7217,-36"/>
<text text-anchor="middle" x="72.5142" y="-13.8" font-family="Helvetica,sans-Serif" font-size="14.00" fill="#000000">Внедрение</text>
</g>
<!-- VP&#45;&gt;V -->
<g id="edge11" class="edge">
<title>VP&#45;&gt;V</title>
<path fill="none" stroke="#000000" d="M72.5142,-71.8314C72.5142,-64.131 72.5142,-54.9743 72.5142,-46.4166"/>
<polygon fill="#000000" stroke="#000000" points="76.0143,-46.4132 72.5142,-36.4133 69.0143,-46.4133 76.0143,-46.4132"/>
</g>
<!-- AV -->
<g id="node12" class="node">
<title>AV</title>
<polygon fill="none" stroke="#000000" points="280.1353,-36 170.893,-36 170.893,0 286.1353,0 286.1353,-30 280.1353,-36"/>
<polyline fill="none" stroke="#000000" points="280.1353,-36 280.1353,-30 "/>
<polyline fill="none" stroke="#000000" points="286.1353,-30 280.1353,-30 "/>
<text text-anchor="middle" x="228.5142" y="-13.8" font-family="Helvetica,sans-Serif" font-size="14.00" fill="#000000">Акт внедрения</text>
</g>
<!-- D&#45;&gt;AV -->
<!-- V&#45;&gt;AV -->
<g id="edge6" class="edge">
<title>V&#45;&gt;AV</title>
<path fill="none" stroke="#000000" d="M116.9985,-18C131.5097,-18 146.0209,-18 160.5321,-18"/>
<polygon fill="#000000" stroke="#000000" points="160.5783,-21.5001 170.5783,-18 160.5783,-14.5001 160.5783,-21.5001"/>
</g>
</g>
</svg>
